<svg width="55" height="64" viewBox="0 0 55 64" fill="none" xmlns="http://www.w3.org/2000/svg">
<path d="M18.5703 33.3672C18.2057 32.237 17.8411 31.2344 17.4766 30.3594C17.1484 29.4844 16.8568 28.737 16.6016 28.1172C15.1797 28.5911 13.6302 28.9193 11.9531 29.1016C11.9531 31.4349 12.0078 33.4219 12.1172 35.0625C12.1536 36.0833 12.1901 36.9583 12.2266 37.6875C12.2995 38.3802 12.3542 38.9818 12.3906 39.4922C12.4635 40.0026 12.5365 40.4583 12.6094 40.8594C12.6823 41.2969 12.7917 41.7161 12.9375 42.1172C12.2083 42.6641 11.4974 43.0651 10.8047 43.3203C10.1484 43.5755 9.5651 43.7578 9.05469 43.8672C8.4349 44.013 7.88802 44.0495 7.41406 43.9766C7.23177 43.4661 7.06771 42.9193 6.92188 42.3359C6.77604 41.7891 6.66667 41.0234 6.59375 40.0391C6.55729 39.0911 6.53906 37.8698 6.53906 36.375C6.53906 34.8802 6.59375 32.9661 6.70312 30.6328C6.73958 30.3776 6.75781 30.1224 6.75781 29.8672C6.75781 29.612 6.77604 29.3568 6.8125 29.1016C6.48438 29.0651 6.13802 29.0286 5.77344 28.9922C5.44531 28.9557 5.11719 28.9193 4.78906 28.8828C4.57031 28.2995 4.42448 27.7891 4.35156 27.3516C4.27865 26.8776 4.24219 26.4948 4.24219 26.2031C4.24219 25.8385 4.27865 25.5469 4.35156 25.3281C4.9349 25.4375 5.51823 25.4922 6.10156 25.4922H6.92188C6.99479 23.9609 7.06771 22.4115 7.14062 20.8438C7.21354 19.2396 7.26823 17.6901 7.30469 16.1953C7.3776 14.6641 7.43229 13.224 7.46875 11.875C7.50521 10.4896 7.54167 9.23177 7.57812 8.10156C6.48438 8.83073 5.53646 9.77865 4.73438 10.9453C3.93229 12.112 3.38542 13.4609 3.09375 14.9922C2.61979 14.9193 2.21875 14.7005 1.89062 14.3359C1.5625 13.9349 1.28906 13.5339 1.07031 13.1328C0.815104 12.6589 0.596354 12.1302 0.414062 11.5469C0.231771 10.8542 0.231771 10.1615 0.414062 9.46875C0.596354 8.73958 0.869792 8.0651 1.23438 7.44531C1.59896 6.78906 2.01823 6.22396 2.49219 5.75C2.96615 5.23958 3.42188 4.83854 3.85938 4.54688C4.625 4.07292 5.40885 3.65365 6.21094 3.28906C7.04948 2.88802 7.97917 2.5599 9 2.30469C9.40104 1.90365 9.83854 1.53906 10.3125 1.21094C10.8229 0.882812 11.2969 0.682292 11.7344 0.609375C12.3542 0.463542 12.7005 0.846354 12.7734 1.75781C13.1016 1.72135 13.4479 1.70312 13.8125 1.70312C14.1771 1.66667 14.5599 1.64844 14.9609 1.64844C16.3464 1.64844 17.7865 1.86719 19.2812 2.30469C20.776 2.74219 22.1432 3.45312 23.3828 4.4375C24.6589 5.38542 25.6979 6.64323 26.5 8.21094C27.3021 9.74219 27.7031 11.6198 27.7031 13.8438C27.7031 16.3594 27.1016 18.6745 25.8984 20.7891C24.7318 22.9036 23.0547 24.6536 20.8672 26.0391C21.1224 26.6953 21.4505 27.5156 21.8516 28.5C22.2526 29.4844 22.6536 30.5964 23.0547 31.8359C23.638 33.3672 24.2578 34.8073 24.9141 36.1562C25.6068 37.4688 26.3177 38.6172 27.0469 39.6016C27.776 40.5859 28.5417 41.3698 29.3438 41.9531C30.1458 42.5729 30.9479 42.9375 31.75 43.0469C31.276 43.776 30.7292 44.2865 30.1094 44.5781C29.4896 44.8698 28.8698 45.0521 28.25 45.125C27.5573 45.2344 26.8281 45.2344 26.0625 45.125C25.0052 44.9062 24.0938 44.3958 23.3281 43.5938C22.5625 42.7917 21.888 41.8255 21.3047 40.6953C20.7578 39.5651 20.2474 38.362 19.7734 37.0859C19.3359 35.7734 18.9349 34.5339 18.5703 33.3672ZM12.2266 10.0703C12.2266 10.8724 12.2083 11.8385 12.1719 12.9688C12.1354 14.099 12.099 15.3203 12.0625 16.6328C12.0625 17.9453 12.0443 19.3307 12.0078 20.7891C11.9714 22.2109 11.9531 23.6328 11.9531 25.0547C12.9375 24.9089 14.013 24.6719 15.1797 24.3438C16.3828 24.0156 17.4948 23.4688 18.5156 22.7031C19.5365 21.9375 20.3932 20.9167 21.0859 19.6406C21.7786 18.3646 22.125 16.724 22.125 14.7188C22.125 13.1875 21.8516 11.8932 21.3047 10.8359C20.7943 9.74219 20.1198 8.86719 19.2812 8.21094C18.4427 7.51823 17.513 7.02604 16.4922 6.73438C15.5078 6.40625 14.5234 6.24219 13.5391 6.24219C13.3568 6.24219 13.1745 6.24219 12.9922 6.24219C12.8099 6.24219 12.6094 6.26042 12.3906 6.29688C12.2812 7.46354 12.2266 8.72135 12.2266 10.0703Z" fill="black"/>
<path d="M30.3516 27.7578C30.1328 27.5391 29.9688 27.3021 29.8594 27.0469C29.75 26.7552 29.6589 26.4635 29.5859 26.1719C29.513 25.8438 29.4583 25.5156 29.4219 25.1875C29.3854 24.8958 29.3854 24.6042 29.4219 24.3125C29.4219 23.7656 29.5312 23.3464 29.75 23.0547C30.151 22.9818 30.5885 22.9089 31.0625 22.8359C31.5365 22.7266 31.9922 22.6354 32.4297 22.5625C32.9401 22.4896 33.4688 22.4167 34.0156 22.3438C34.3073 22.0521 34.6901 21.7422 35.1641 21.4141C35.6745 21.0495 36.2396 20.7214 36.8594 20.4297C37.3333 20.2109 37.6615 20.2109 37.8438 20.4297C38.026 20.6484 38.1536 21.1042 38.2266 21.7969C39.138 21.724 40.0859 21.651 41.0703 21.5781C42.0547 21.5052 43.0755 21.4688 44.1328 21.4688C45.5547 21.4323 46.8854 21.3958 48.125 21.3594C49.1823 21.3229 50.2396 21.3229 51.2969 21.3594C52.3906 21.3594 53.2292 21.3776 53.8125 21.4141C54.1042 21.4505 54.3229 21.6693 54.4688 22.0703C54.651 22.4349 54.7057 22.9271 54.6328 23.5469C54.5964 24.1302 54.4141 24.7682 54.0859 25.4609C53.7578 26.1536 53.2656 26.8281 52.6094 27.4844C51.7344 27.3021 50.8047 27.1562 49.8203 27.0469C48.8724 26.9375 47.9974 26.8464 47.1953 26.7734C46.2474 26.7005 45.3359 26.6823 44.4609 26.7188C43.4036 26.7188 42.3464 26.7552 41.2891 26.8281C40.2318 26.8646 39.2292 26.9193 38.2812 26.9922C38.2448 28.6328 38.2083 30.5469 38.1719 32.7344C38.1719 34.8854 38.1536 37.2734 38.1172 39.8984C38.6276 39.8255 39.1198 39.7891 39.5938 39.7891C40.0677 39.7526 40.5599 39.7161 41.0703 39.6797C42.3828 39.6068 43.6589 39.5339 44.8984 39.4609C46.138 39.388 47.2135 39.4245 48.125 39.5703C49.0729 39.6797 49.7839 39.9531 50.2578 40.3906C50.7318 40.8281 50.8411 41.5208 50.5859 42.4688L49.8203 45.0938C49.7474 44.9115 49.5469 44.7656 49.2188 44.6562C48.9271 44.5104 48.5807 44.401 48.1797 44.3281C47.7422 44.2188 47.25 44.1276 46.7031 44.0547C45.4271 43.9089 44.0234 43.8906 42.4922 44C40.9609 44.1094 39.4844 44.2734 38.0625 44.4922C38.0625 46.3151 38.0807 48.0469 38.1172 49.6875C38.1901 51.2917 38.263 52.75 38.3359 54.0625C38.4453 55.375 38.5365 56.5052 38.6094 57.4531C38.6823 58.401 38.737 59.112 38.7734 59.5859C38.8099 59.9141 38.7734 60.1693 38.6641 60.3516C38.4818 60.5703 38.263 60.8255 38.0078 61.1172C37.7526 61.4089 37.4245 61.7005 37.0234 61.9922C36.6224 62.2839 36.1302 62.5208 35.5469 62.7031C35 62.9219 34.362 63.0495 33.6328 63.0859C33.3047 63.0859 33.1406 62.9219 33.1406 62.5938V45.6406C32.5208 45.6042 31.9557 45.1302 31.4453 44.2188C30.9349 43.3073 30.6979 42.2865 30.7344 41.1562C30.9896 41.0833 31.2448 41.0286 31.5 40.9922C31.7917 40.9557 32.0651 40.901 32.3203 40.8281C32.612 40.7552 32.8854 40.7005 33.1406 40.6641C33.1406 38.0391 33.1589 35.5964 33.1953 33.3359C33.2318 31.0391 33.2865 29.0703 33.3594 27.4297C33.0312 27.4661 32.6849 27.5026 32.3203 27.5391C32.0286 27.5755 31.7005 27.612 31.3359 27.6484C30.9714 27.6849 30.6432 27.7214 30.3516 27.7578Z" fill="black"/>
</svg>
