<svg width="278" height="46" viewBox="0 0 278 46" fill="none" xmlns="http://www.w3.org/2000/svg">
<path d="M18.5703 33.3672C18.2057 32.237 17.8411 31.2344 17.4766 30.3594C17.1484 29.4844 16.8568 28.737 16.6016 28.1172C15.1797 28.5911 13.6302 28.9193 11.9531 29.1016C11.9531 31.4349 12.0078 33.4219 12.1172 35.0625C12.1536 36.0833 12.1901 36.9583 12.2266 37.6875C12.2995 38.3802 12.3542 38.9818 12.3906 39.4922C12.4635 40.0026 12.5365 40.4583 12.6094 40.8594C12.6823 41.2969 12.7917 41.7161 12.9375 42.1172C12.2083 42.6641 11.4974 43.0651 10.8047 43.3203C10.1484 43.5755 9.5651 43.7578 9.05469 43.8672C8.4349 44.013 7.88802 44.0495 7.41406 43.9766C7.23177 43.4661 7.06771 42.9193 6.92188 42.3359C6.77604 41.7891 6.66667 41.0234 6.59375 40.0391C6.55729 39.0911 6.53906 37.8698 6.53906 36.375C6.53906 34.8802 6.59375 32.9661 6.70312 30.6328C6.73958 30.3776 6.75781 30.1224 6.75781 29.8672C6.75781 29.612 6.77604 29.3568 6.8125 29.1016C6.48438 29.0651 6.13802 29.0286 5.77344 28.9922C5.44531 28.9557 5.11719 28.9193 4.78906 28.8828C4.57031 28.2995 4.42448 27.7891 4.35156 27.3516C4.27865 26.8776 4.24219 26.4948 4.24219 26.2031C4.24219 25.8385 4.27865 25.5469 4.35156 25.3281C4.9349 25.4375 5.51823 25.4922 6.10156 25.4922H6.92188C6.99479 23.9609 7.06771 22.4115 7.14062 20.8438C7.21354 19.2396 7.26823 17.6901 7.30469 16.1953C7.3776 14.6641 7.43229 13.224 7.46875 11.875C7.50521 10.4896 7.54167 9.23177 7.57812 8.10156C6.48438 8.83073 5.53646 9.77865 4.73438 10.9453C3.93229 12.112 3.38542 13.4609 3.09375 14.9922C2.61979 14.9193 2.21875 14.7005 1.89062 14.3359C1.5625 13.9349 1.28906 13.5339 1.07031 13.1328C0.815104 12.6589 0.596354 12.1302 0.414062 11.5469C0.231771 10.8542 0.231771 10.1615 0.414062 9.46875C0.596354 8.73958 0.869792 8.0651 1.23438 7.44531C1.59896 6.78906 2.01823 6.22396 2.49219 5.75C2.96615 5.23958 3.42188 4.83854 3.85938 4.54688C4.625 4.07292 5.40885 3.65365 6.21094 3.28906C7.04948 2.88802 7.97917 2.5599 9 2.30469C9.40104 1.90365 9.83854 1.53906 10.3125 1.21094C10.8229 0.882812 11.2969 0.682292 11.7344 0.609375C12.3542 0.463542 12.7005 0.846354 12.7734 1.75781C13.1016 1.72135 13.4479 1.70312 13.8125 1.70312C14.1771 1.66667 14.5599 1.64844 14.9609 1.64844C16.3464 1.64844 17.7865 1.86719 19.2812 2.30469C20.776 2.74219 22.1432 3.45312 23.3828 4.4375C24.6589 5.38542 25.6979 6.64323 26.5 8.21094C27.3021 9.74219 27.7031 11.6198 27.7031 13.8438C27.7031 16.3594 27.1016 18.6745 25.8984 20.7891C24.7318 22.9036 23.0547 24.6536 20.8672 26.0391C21.1224 26.6953 21.4505 27.5156 21.8516 28.5C22.2526 29.4844 22.6536 30.5964 23.0547 31.8359C23.638 33.3672 24.2578 34.8073 24.9141 36.1562C25.6068 37.4688 26.3177 38.6172 27.0469 39.6016C27.776 40.5859 28.5417 41.3698 29.3438 41.9531C30.1458 42.5729 30.9479 42.9375 31.75 43.0469C31.276 43.776 30.7292 44.2865 30.1094 44.5781C29.4896 44.8698 28.8698 45.0521 28.25 45.125C27.5573 45.2344 26.8281 45.2344 26.0625 45.125C25.0052 44.9062 24.0938 44.3958 23.3281 43.5938C22.5625 42.7917 21.888 41.8255 21.3047 40.6953C20.7578 39.5651 20.2474 38.362 19.7734 37.0859C19.3359 35.7734 18.9349 34.5339 18.5703 33.3672ZM12.2266 10.0703C12.2266 10.8724 12.2083 11.8385 12.1719 12.9688C12.1354 14.099 12.099 15.3203 12.0625 16.6328C12.0625 17.9453 12.0443 19.3307 12.0078 20.7891C11.9714 22.2109 11.9531 23.6328 11.9531 25.0547C12.9375 24.9089 14.013 24.6719 15.1797 24.3438C16.3828 24.0156 17.4948 23.4688 18.5156 22.7031C19.5365 21.9375 20.3932 20.9167 21.0859 19.6406C21.7786 18.3646 22.125 16.724 22.125 14.7188C22.125 13.1875 21.8516 11.8932 21.3047 10.8359C20.7943 9.74219 20.1198 8.86719 19.2812 8.21094C18.4427 7.51823 17.513 7.02604 16.4922 6.73438C15.5078 6.40625 14.5234 6.24219 13.5391 6.24219C13.3568 6.24219 13.1745 6.24219 12.9922 6.24219C12.8099 6.24219 12.6094 6.26042 12.3906 6.29688C12.2812 7.46354 12.2266 8.72135 12.2266 10.0703ZM38.0391 39.6016C35.487 39.6016 33.5182 38.7448 32.1328 37.0312C30.7474 35.3177 30.0547 33.0755 30.0547 30.3047C30.0547 28.3724 30.3281 26.5677 30.875 24.8906C31.4583 23.1771 32.224 21.7005 33.1719 20.4609C34.1198 19.2214 35.2135 18.2552 36.4531 17.5625C37.7292 16.8333 39.0599 16.4688 40.4453 16.4688C41.7943 16.4688 42.9427 16.9609 43.8906 17.9453C44.8385 18.8932 45.3125 20.2604 45.3125 22.0469C45.3125 23.2135 45.0573 24.3802 44.5469 25.5469C44.0365 26.6771 43.362 27.6979 42.5234 28.6094C41.7214 29.4844 40.8281 30.1953 39.8438 30.7422C38.8594 31.2891 37.9115 31.5625 37 31.5625C36.4167 31.5625 35.9245 31.4896 35.5234 31.3438C35.1224 31.1979 34.7578 30.9792 34.4297 30.6875C34.5391 32.7656 34.9948 34.224 35.7969 35.0625C36.599 35.8646 37.638 36.2656 38.9141 36.2656C39.7891 36.2656 40.5547 36.0833 41.2109 35.7188C41.9036 35.3542 42.487 34.9349 42.9609 34.4609C43.4349 33.987 43.8177 33.513 44.1094 33.0391C44.401 32.5286 44.6016 32.1458 44.7109 31.8906C44.8203 31.6719 45.0026 31.5625 45.2578 31.5625C45.5495 31.5625 45.6953 31.7812 45.6953 32.2188C45.6953 32.6198 45.5495 33.2396 45.2578 34.0781C45.0026 34.8802 44.5651 35.7005 43.9453 36.5391C43.3255 37.3411 42.5234 38.0521 41.5391 38.6719C40.5911 39.2917 39.4245 39.6016 38.0391 39.6016ZM40.5547 18.8203C40.3359 18.8203 39.9167 19.0573 39.2969 19.5312C38.7135 19.9688 38.0755 20.625 37.3828 21.5C36.7266 22.375 36.1068 23.4323 35.5234 24.6719C34.9766 25.875 34.6302 27.2422 34.4844 28.7734C36.6719 28.263 38.4036 27.4609 39.6797 26.3672C40.9557 25.2734 41.5938 23.6693 41.5938 21.5547C41.5938 20.4974 41.4661 19.7865 41.2109 19.4219C40.9557 19.0208 40.737 18.8203 40.5547 18.8203ZM57.5078 28.6094C58.3099 28.901 59.0755 29.1745 59.8047 29.4297C60.5339 29.6849 61.1719 29.9948 61.7188 30.3594C62.2656 30.724 62.7031 31.1615 63.0312 31.6719C63.3594 32.1458 63.5234 32.7474 63.5234 33.4766C63.5234 34.3516 63.3229 35.1719 62.9219 35.9375C62.5573 36.7031 62.0104 37.3776 61.2812 37.9609C60.5521 38.5443 59.6589 39 58.6016 39.3281C57.5807 39.6927 56.4323 39.875 55.1562 39.875C53.7344 39.875 52.5859 39.7292 51.7109 39.4375C50.8359 39.1823 50.1615 38.8724 49.6875 38.5078C49.2135 38.1432 48.9036 37.7786 48.7578 37.4141C48.612 37.0495 48.5391 36.7578 48.5391 36.5391C48.5391 36.1016 48.6302 35.6276 48.8125 35.1172C48.9948 34.5703 49.3411 33.987 49.8516 33.3672C50.0703 33.112 50.3073 32.875 50.5625 32.6562C51.0729 32.2188 51.5833 31.9453 52.0938 31.8359C52.0208 32.6745 52.112 33.3672 52.3672 33.9141C52.6589 34.4245 53.0234 34.8255 53.4609 35.1172C53.9349 35.4089 54.4453 35.6094 54.9922 35.7188C55.5755 35.8281 56.1224 35.8828 56.6328 35.8828C57.1432 35.8828 57.6536 35.8099 58.1641 35.6641C58.7109 35.5182 59.2031 35.3359 59.6406 35.1172C60.0781 34.862 60.4245 34.5885 60.6797 34.2969C60.9714 33.9688 61.1172 33.6224 61.1172 33.2578C61.1172 32.8568 60.9531 32.5286 60.625 32.2734C60.2969 32.0182 59.8776 31.8177 59.3672 31.6719C58.8932 31.4896 58.3646 31.362 57.7812 31.2891C57.2344 31.1797 56.7057 31.0703 56.1953 30.9609C55.6849 30.8516 54.9922 30.7057 54.1172 30.5234C53.2786 30.3047 52.4401 29.9766 51.6016 29.5391C50.7995 29.1016 50.0885 28.5182 49.4688 27.7891C48.8854 27.0599 48.5938 26.0938 48.5938 24.8906C48.5938 23.5052 48.9401 22.3021 49.6328 21.2812C50.362 20.224 51.237 19.349 52.2578 18.6562C53.3151 17.9271 54.4271 17.3802 55.5938 17.0156C56.7604 16.651 57.7995 16.4688 58.7109 16.4688C59.1849 16.4688 59.6953 16.5417 60.2422 16.6875C60.7891 16.7969 61.2995 17.0156 61.7734 17.3438C62.2474 17.6354 62.6302 18.0365 62.9219 18.5469C63.25 19.0573 63.4141 19.7135 63.4141 20.5156C63.4141 21.3177 63.3411 21.974 63.1953 22.4844C63.0859 22.9583 62.9036 23.3411 62.6484 23.6328C62.4297 23.888 62.1562 24.0521 61.8281 24.125C61.5 24.1979 61.1172 24.2344 60.6797 24.2344C60.388 24.2344 60.1146 24.1979 59.8594 24.125C59.6406 24.0521 59.4036 23.9792 59.1484 23.9062C58.8932 23.8333 58.6562 23.7057 58.4375 23.5234C58.8021 23.0859 59.0755 22.6667 59.2578 22.2656C59.4766 21.8646 59.5859 21.3724 59.5859 20.7891C59.5859 20.2786 59.4401 19.8229 59.1484 19.4219C58.8932 19.0208 58.4557 18.8203 57.8359 18.8203C57.1797 18.8203 56.5417 18.9479 55.9219 19.2031C55.3385 19.4583 54.8099 19.8047 54.3359 20.2422C53.8984 20.6797 53.5339 21.1901 53.2422 21.7734C52.987 22.3203 52.8594 22.9219 52.8594 23.5781C52.8594 24.5625 53.224 25.4922 53.9531 26.3672C54.7188 27.2422 55.9036 27.9896 57.5078 28.6094ZM81.7891 29.5938C81.7161 31.0156 81.4609 32.3281 81.0234 33.5312C80.6224 34.7344 80.0573 35.7917 79.3281 36.7031C78.599 37.5781 77.724 38.2708 76.7031 38.7812C75.7188 39.2917 74.625 39.5651 73.4219 39.6016C72.3646 39.638 71.362 39.3828 70.4141 38.8359C69.5026 38.2891 68.7005 37.5234 68.0078 36.5391C67.3151 35.5547 66.7865 34.388 66.4219 33.0391C66.0938 31.6536 66.0026 30.1589 66.1484 28.5547C66.2578 26.6953 66.6042 25.1094 67.1875 23.7969C67.7708 22.4479 68.3906 21.3359 69.0469 20.4609C69.7031 19.5859 70.3047 18.9479 70.8516 18.5469C71.4349 18.1094 71.7995 17.8542 71.9453 17.7812C72.2005 17.6719 72.4375 17.6536 72.6562 17.7266C72.875 17.763 73.112 17.8177 73.3672 17.8906C73.4401 17.9271 73.513 18.0182 73.5859 18.1641C73.7318 18.4193 73.8229 18.8932 73.8594 19.5859C74.0417 19.1849 74.2786 18.8568 74.5703 18.6016C74.862 18.3464 75.1536 18.1641 75.4453 18.0547C75.8099 17.9089 76.1745 17.8177 76.5391 17.7812C76.7943 17.7448 77.2318 17.9453 77.8516 18.3828C78.5078 18.8203 79.1276 19.513 79.7109 20.4609C80.3307 21.4089 80.8594 22.6484 81.2969 24.1797C81.7344 25.6745 81.8984 27.4792 81.7891 29.5938ZM78.0703 28.9375C78.1068 28.0625 78.0703 27.1875 77.9609 26.3125C77.888 25.401 77.7422 24.5807 77.5234 23.8516C77.3411 23.0859 77.1042 22.4844 76.8125 22.0469C76.5208 21.5729 76.2292 21.3359 75.9375 21.3359C75.6094 21.4089 75.2448 21.5729 74.8438 21.8281C74.5156 22.0469 74.151 22.3932 73.75 22.8672C73.349 23.3411 72.9661 24.0156 72.6016 24.8906C72.5651 24.7812 72.5286 24.5807 72.4922 24.2891C72.4557 24.0339 72.4193 23.7057 72.3828 23.3047C72.3828 22.8672 72.4193 22.2839 72.4922 21.5547C71.9818 22.1745 71.5807 22.9036 71.2891 23.7422C71.0339 24.5807 70.8333 25.3828 70.6875 26.1484C70.5417 27.0599 70.4323 27.9714 70.3594 28.8828C70.3229 29.8672 70.3594 30.8333 70.4688 31.7812C70.6146 32.7292 70.8333 33.5677 71.125 34.2969C71.4531 35.026 71.8359 35.6094 72.2734 36.0469C72.7109 36.4844 73.2396 36.6849 73.8594 36.6484C74.4792 36.612 75.026 36.3568 75.5 35.8828C75.974 35.4089 76.3932 34.8073 76.7578 34.0781C77.1224 33.349 77.4141 32.5286 77.6328 31.6172C77.8516 30.7057 77.9974 29.8125 78.0703 28.9375ZM97.1562 18.6562C97.1562 18.2552 97.3932 17.9635 97.8672 17.7812C98.3776 17.5625 98.9062 17.4531 99.4531 17.4531C100.036 17.4531 100.565 17.5625 101.039 17.7812C101.513 17.9635 101.732 18.2188 101.695 18.5469C101.659 18.8021 101.622 19.3125 101.586 20.0781C101.549 20.8073 101.495 21.6823 101.422 22.7031C101.385 23.724 101.331 24.8177 101.258 25.9844C101.185 27.151 101.112 28.2995 101.039 29.4297C101.003 30.5234 100.966 31.5443 100.93 32.4922C100.93 33.4401 100.93 34.1693 100.93 34.6797C100.93 35.3359 100.966 35.9375 101.039 36.4844C101.112 36.9583 101.203 37.4323 101.312 37.9062C101.422 38.3438 101.586 38.6536 101.805 38.8359C101.513 38.9453 101.203 39.0182 100.875 39.0547C100.583 39.0911 100.31 39.1276 100.055 39.1641C99.763 39.2005 99.4714 39.2188 99.1797 39.2188C98.5599 39.2188 98.0312 39.0911 97.5938 38.8359C97.1927 38.5807 96.9922 38.0521 96.9922 37.25C96.9922 36.849 97.0104 36.2656 97.0469 35.5C97.1198 34.7344 97.1927 33.9141 97.2656 33.0391C97.0104 33.8047 96.7005 34.5885 96.3359 35.3906C95.9714 36.1927 95.5156 36.9036 94.9688 37.5234C94.4583 38.1432 93.875 38.6536 93.2188 39.0547C92.5625 39.4557 91.8151 39.6562 90.9766 39.6562C90.0286 39.6562 89.1536 39.4557 88.3516 39.0547C87.5859 38.6536 86.9115 38.0885 86.3281 37.3594C85.7448 36.5938 85.3073 35.6641 85.0156 34.5703C84.724 33.4766 84.6146 32.2188 84.6875 30.7969C84.6875 29.7031 84.7057 28.5365 84.7422 27.2969C84.7786 26.2396 84.8333 25.0182 84.9062 23.6328C84.9792 22.2474 85.1068 20.8073 85.2891 19.3125C85.3255 19.1667 85.5807 18.9844 86.0547 18.7656C86.5286 18.5469 87.0573 18.3646 87.6406 18.2188C88.224 18.0729 88.7891 18.0182 89.3359 18.0547C89.8828 18.0911 90.2839 18.3099 90.5391 18.7109C90.3568 19.3672 90.1745 20.151 89.9922 21.0625C89.8099 21.9375 89.6458 22.849 89.5 23.7969C89.3542 24.7448 89.2448 25.6745 89.1719 26.5859C89.099 27.4974 89.0625 28.3359 89.0625 29.1016C89.0625 29.7943 89.099 30.5599 89.1719 31.3984C89.2448 32.2005 89.3724 32.9661 89.5547 33.6953C89.7734 34.388 90.0651 34.9714 90.4297 35.4453C90.8307 35.9193 91.3411 36.1562 91.9609 36.1562C92.6536 36.1562 93.2552 35.8646 93.7656 35.2812C94.3125 34.6615 94.7682 33.8776 95.1328 32.9297C95.4974 31.9818 95.8073 30.9062 96.0625 29.7031C96.3177 28.4635 96.5182 27.2422 96.6641 26.0391C96.8464 24.8359 96.9557 23.6875 96.9922 22.5938C97.0651 21.4635 97.1198 20.5156 97.1562 19.75V18.6562ZM120.344 22.2109C120.344 22.7214 120.198 23.25 119.906 23.7969C119.651 24.3073 119.323 24.7995 118.922 25.2734C118.521 25.7474 118.065 26.1667 117.555 26.5312C117.081 26.8594 116.625 27.0599 116.188 27.1328C116.479 26.0026 116.57 25.1276 116.461 24.5078C116.352 23.888 116.169 23.4323 115.914 23.1406C115.622 22.8125 115.258 22.6302 114.82 22.5938C114.164 22.5938 113.526 22.9766 112.906 23.7422C112.323 24.4714 111.812 25.3828 111.375 26.4766C110.938 27.5339 110.591 28.6823 110.336 29.9219C110.081 31.125 109.953 32.2188 109.953 33.2031C109.917 33.8958 109.935 34.5703 110.008 35.2266C110.044 35.7734 110.099 36.3385 110.172 36.9219C110.281 37.5052 110.427 37.9609 110.609 38.2891C110.391 38.4714 110.026 38.6901 109.516 38.9453C109.042 39.2005 108.531 39.3646 107.984 39.4375C107.474 39.5104 107 39.4193 106.562 39.1641C106.161 38.9089 105.943 38.362 105.906 37.5234C105.833 36.7214 105.779 35.8281 105.742 34.8438C105.742 33.8229 105.742 32.8203 105.742 31.8359C105.779 30.8151 105.815 29.8125 105.852 28.8281C105.888 27.8438 105.943 26.9323 106.016 26.0938C106.089 24.4896 106.125 23.25 106.125 22.375C106.125 21.5 106.107 20.6615 106.07 19.8594C106.07 19.7135 106.307 19.513 106.781 19.2578C107.292 18.9661 107.839 18.7109 108.422 18.4922C109.042 18.2734 109.607 18.1458 110.117 18.1094C110.628 18.0729 110.883 18.1823 110.883 18.4375C110.883 18.8385 110.828 19.6406 110.719 20.8438C110.646 22.0104 110.536 23.2318 110.391 24.5078C110.646 23.8151 110.974 23.0677 111.375 22.2656C111.812 21.4635 112.305 20.7161 112.852 20.0234C113.398 19.3307 114.018 18.7656 114.711 18.3281C115.404 17.8542 116.169 17.6172 117.008 17.6172C117.664 17.6172 118.193 17.8177 118.594 18.2188C119.031 18.6198 119.378 19.0755 119.633 19.5859C119.888 20.0964 120.07 20.6068 120.18 21.1172C120.289 21.6276 120.344 21.9922 120.344 22.2109ZM137.078 32.1094C137.078 32.5104 136.932 33.1302 136.641 33.9688C136.385 34.7708 135.948 35.5911 135.328 36.4297C134.708 37.2318 133.906 37.9427 132.922 38.5625C131.974 39.1823 130.807 39.4922 129.422 39.4922C127.453 39.4922 125.794 38.9635 124.445 37.9062C123.133 36.8125 122.203 35.263 121.656 33.2578C121.219 31.5807 121.091 29.7943 121.273 27.8984C121.492 25.9661 122.021 24.1797 122.859 22.5391C123.698 20.8984 124.865 19.513 126.359 18.3828C127.854 17.2161 129.677 16.5781 131.828 16.4688C132.922 16.4323 133.833 16.6328 134.562 17.0703C135.292 17.5078 135.857 18.0729 136.258 18.7656C136.659 19.4583 136.896 20.224 136.969 21.0625C137.042 21.8646 136.951 22.6302 136.695 23.3594C136.477 24.0885 136.112 24.7083 135.602 25.2188C135.128 25.6927 134.508 25.9479 133.742 25.9844C132.977 26.0573 132.339 25.9661 131.828 25.7109C131.354 25.4193 130.971 25.0729 130.68 24.6719C130.424 24.2708 130.242 23.8516 130.133 23.4141C130.06 22.9766 130.06 22.5938 130.133 22.2656C130.242 21.7917 130.424 21.3542 130.68 20.9531C130.898 20.5885 131.208 20.224 131.609 19.8594C132.047 19.4948 132.612 19.2031 133.305 18.9844C133.195 18.9115 133.086 18.875 132.977 18.875C132.867 18.875 132.758 18.8568 132.648 18.8203C132.503 18.8203 132.393 18.8021 132.32 18.7656C131.737 18.7656 131.062 18.9661 130.297 19.3672C129.568 19.7682 128.857 20.4062 128.164 21.2812C127.508 22.1562 126.943 23.2865 126.469 24.6719C126.031 26.0208 125.812 27.6615 125.812 29.5938C125.812 30.4323 125.904 31.2708 126.086 32.1094C126.268 32.9115 126.542 33.6406 126.906 34.2969C127.307 34.9167 127.781 35.4271 128.328 35.8281C128.911 36.1927 129.586 36.375 130.352 36.375C131.227 36.375 131.992 36.1927 132.648 35.8281C133.341 35.4271 133.924 34.9714 134.398 34.4609C134.872 33.9505 135.237 33.4401 135.492 32.9297C135.784 32.4193 135.984 32.0365 136.094 31.7812C136.203 31.5625 136.385 31.4531 136.641 31.4531C136.932 31.4531 137.078 31.6719 137.078 32.1094ZM147.578 39.6016C145.026 39.6016 143.057 38.7448 141.672 37.0312C140.286 35.3177 139.594 33.0755 139.594 30.3047C139.594 28.3724 139.867 26.5677 140.414 24.8906C140.997 23.1771 141.763 21.7005 142.711 20.4609C143.659 19.2214 144.753 18.2552 145.992 17.5625C147.268 16.8333 148.599 16.4688 149.984 16.4688C151.333 16.4688 152.482 16.9609 153.43 17.9453C154.378 18.8932 154.852 20.2604 154.852 22.0469C154.852 23.2135 154.596 24.3802 154.086 25.5469C153.576 26.6771 152.901 27.6979 152.062 28.6094C151.26 29.4844 150.367 30.1953 149.383 30.7422C148.398 31.2891 147.451 31.5625 146.539 31.5625C145.956 31.5625 145.464 31.4896 145.062 31.3438C144.661 31.1979 144.297 30.9792 143.969 30.6875C144.078 32.7656 144.534 34.224 145.336 35.0625C146.138 35.8646 147.177 36.2656 148.453 36.2656C149.328 36.2656 150.094 36.0833 150.75 35.7188C151.443 35.3542 152.026 34.9349 152.5 34.4609C152.974 33.987 153.357 33.513 153.648 33.0391C153.94 32.5286 154.141 32.1458 154.25 31.8906C154.359 31.6719 154.542 31.5625 154.797 31.5625C155.089 31.5625 155.234 31.7812 155.234 32.2188C155.234 32.6198 155.089 33.2396 154.797 34.0781C154.542 34.8802 154.104 35.7005 153.484 36.5391C152.865 37.3411 152.062 38.0521 151.078 38.6719C150.13 39.2917 148.964 39.6016 147.578 39.6016ZM150.094 18.8203C149.875 18.8203 149.456 19.0573 148.836 19.5312C148.253 19.9688 147.615 20.625 146.922 21.5C146.266 22.375 145.646 23.4323 145.062 24.6719C144.516 25.875 144.169 27.2422 144.023 28.7734C146.211 28.263 147.943 27.4609 149.219 26.3672C150.495 25.2734 151.133 23.6693 151.133 21.5547C151.133 20.4974 151.005 19.7865 150.75 19.4219C150.495 19.0208 150.276 18.8203 150.094 18.8203ZM170.766 8.75781C170.547 8.53906 170.383 8.30208 170.273 8.04688C170.164 7.75521 170.073 7.46354 170 7.17188C169.927 6.84375 169.872 6.51562 169.836 6.1875C169.799 5.89583 169.799 5.60417 169.836 5.3125C169.836 4.76562 169.945 4.34635 170.164 4.05469C170.565 3.98177 171.003 3.90885 171.477 3.83594C171.951 3.72656 172.406 3.63542 172.844 3.5625C173.354 3.48958 173.883 3.41667 174.43 3.34375C174.721 3.05208 175.104 2.74219 175.578 2.41406C176.089 2.04948 176.654 1.72135 177.273 1.42969C177.747 1.21094 178.076 1.21094 178.258 1.42969C178.44 1.64844 178.568 2.10417 178.641 2.79688C179.552 2.72396 180.5 2.65104 181.484 2.57812C182.469 2.50521 183.49 2.46875 184.547 2.46875C185.969 2.43229 187.299 2.39583 188.539 2.35938C189.596 2.32292 190.654 2.32292 191.711 2.35938C192.805 2.35938 193.643 2.3776 194.227 2.41406C194.518 2.45052 194.737 2.66927 194.883 3.07031C195.065 3.4349 195.12 3.92708 195.047 4.54688C195.01 5.13021 194.828 5.76823 194.5 6.46094C194.172 7.15365 193.68 7.82812 193.023 8.48438C192.148 8.30208 191.219 8.15625 190.234 8.04688C189.286 7.9375 188.411 7.84635 187.609 7.77344C186.661 7.70052 185.75 7.68229 184.875 7.71875C183.818 7.71875 182.76 7.75521 181.703 7.82812C180.646 7.86458 179.643 7.91927 178.695 7.99219C178.659 9.63281 178.622 11.5469 178.586 13.7344C178.586 15.8854 178.568 18.2734 178.531 20.8984C179.042 20.8255 179.534 20.7891 180.008 20.7891C180.482 20.7526 180.974 20.7161 181.484 20.6797C182.797 20.6068 184.073 20.5339 185.312 20.4609C186.552 20.388 187.628 20.4245 188.539 20.5703C189.487 20.6797 190.198 20.9531 190.672 21.3906C191.146 21.8281 191.255 22.5208 191 23.4688L190.234 26.0938C190.161 25.9115 189.961 25.7656 189.633 25.6562C189.341 25.5104 188.995 25.401 188.594 25.3281C188.156 25.2188 187.664 25.1276 187.117 25.0547C185.841 24.9089 184.438 24.8906 182.906 25C181.375 25.1094 179.898 25.2734 178.477 25.4922C178.477 27.3151 178.495 29.0469 178.531 30.6875C178.604 32.2917 178.677 33.75 178.75 35.0625C178.859 36.375 178.951 37.5052 179.023 38.4531C179.096 39.401 179.151 40.112 179.188 40.5859C179.224 40.9141 179.188 41.1693 179.078 41.3516C178.896 41.5703 178.677 41.8255 178.422 42.1172C178.167 42.4089 177.839 42.7005 177.438 42.9922C177.036 43.2839 176.544 43.5208 175.961 43.7031C175.414 43.9219 174.776 44.0495 174.047 44.0859C173.719 44.0859 173.555 43.9219 173.555 43.5938V26.6406C172.935 26.6042 172.37 26.1302 171.859 25.2188C171.349 24.3073 171.112 23.2865 171.148 22.1562C171.404 22.0833 171.659 22.0286 171.914 21.9922C172.206 21.9557 172.479 21.901 172.734 21.8281C173.026 21.7552 173.299 21.7005 173.555 21.6641C173.555 19.0391 173.573 16.5964 173.609 14.3359C173.646 12.0391 173.701 10.0703 173.773 8.42969C173.445 8.46615 173.099 8.5026 172.734 8.53906C172.443 8.57552 172.115 8.61198 171.75 8.64844C171.385 8.6849 171.057 8.72135 170.766 8.75781ZM194.336 19.6406C194.336 19.4219 194.628 19.1849 195.211 18.9297C195.794 18.6745 196.432 18.474 197.125 18.3281C197.854 18.1458 198.51 18.0547 199.094 18.0547C199.714 18.0182 200.023 18.1458 200.023 18.4375C200.023 18.9844 199.987 19.7682 199.914 20.7891C199.841 21.7734 199.75 22.8307 199.641 23.9609C199.531 25.0547 199.422 26.1667 199.312 27.2969C199.203 28.3906 199.13 29.3203 199.094 30.0859C199.021 30.888 198.948 31.763 198.875 32.7109C198.802 33.513 198.747 34.4062 198.711 35.3906C198.674 36.375 198.674 37.3776 198.711 38.3984C198.711 38.5807 198.529 38.763 198.164 38.9453C197.799 39.1276 197.398 39.2552 196.961 39.3281C196.523 39.4375 196.104 39.4922 195.703 39.4922C195.302 39.4922 195.083 39.4193 195.047 39.2734C194.974 39.1276 194.901 38.8724 194.828 38.5078C194.755 38.1432 194.682 37.6328 194.609 36.9766C194.536 36.2839 194.482 35.4089 194.445 34.3516C194.409 33.2578 194.427 31.9453 194.5 30.4141C194.646 27.388 194.664 25.0547 194.555 23.4141C194.445 21.737 194.372 20.4792 194.336 19.6406ZM198.164 8.75781C198.893 8.75781 199.586 8.97656 200.242 9.41406C200.898 9.85156 201.227 10.4349 201.227 11.1641C201.227 11.7109 201.081 12.2396 200.789 12.75C200.534 13.2604 200.206 13.7161 199.805 14.1172C199.404 14.5182 198.948 14.8464 198.438 15.1016C197.927 15.3203 197.453 15.4297 197.016 15.4297C196.432 15.4297 195.958 15.3385 195.594 15.1562C195.229 14.9375 194.938 14.7005 194.719 14.4453C194.536 14.1536 194.409 13.8438 194.336 13.5156C194.263 13.1875 194.227 12.8776 194.227 12.5859C194.227 12.2214 194.281 11.8203 194.391 11.3828C194.5 10.9089 194.701 10.4896 194.992 10.125C195.284 9.72396 195.685 9.39583 196.195 9.14062C196.706 8.88542 197.362 8.75781 198.164 8.75781ZM196.797 13.8438C197.016 13.8438 197.253 13.7708 197.508 13.625C197.799 13.4427 198.055 13.2422 198.273 13.0234C198.529 12.8047 198.729 12.5677 198.875 12.3125C199.057 12.0573 199.148 11.8385 199.148 11.6562C199.148 11.3646 199.003 11.2188 198.711 11.2188C198.529 11.2188 198.292 11.2917 198 11.4375C197.745 11.5833 197.49 11.7656 197.234 11.9844C196.979 12.1667 196.76 12.3854 196.578 12.6406C196.432 12.8594 196.359 13.0781 196.359 13.2969C196.359 13.6615 196.505 13.8438 196.797 13.8438ZM209.484 37.5234C209.448 37.7422 209.247 37.9792 208.883 38.2344C208.555 38.4531 208.154 38.6536 207.68 38.8359C207.242 39.0182 206.823 39.1276 206.422 39.1641C206.021 39.237 205.747 39.2005 205.602 39.0547C205.456 38.9089 205.219 38.6354 204.891 38.2344C204.562 37.8333 204.362 37.1771 204.289 36.2656C204.216 35.3177 204.18 34.1328 204.18 32.7109C204.18 31.2526 204.161 29.6484 204.125 27.8984V25.7109C204.125 25.0547 204.107 24.2891 204.07 23.4141C204.07 22.5391 204.052 21.6276 204.016 20.6797C204.344 20.4974 204.672 20.3333 205 20.1875C205.365 20.0052 205.693 19.8594 205.984 19.75C206.312 19.6042 206.622 19.4948 206.914 19.4219C207.68 19.2031 208.263 19.0755 208.664 19.0391C209.065 19.0026 209.302 19.1302 209.375 19.4219C209.411 19.6406 209.393 20.1693 209.32 21.0078C209.247 21.737 209.156 22.849 209.047 24.3438C208.938 25.8021 208.755 27.8438 208.5 30.4688C208.974 29.3021 209.357 28.2995 209.648 27.4609C209.977 26.6224 210.25 25.9479 210.469 25.4375C210.688 24.8177 210.888 24.3255 211.07 23.9609C211.253 23.487 211.49 22.9583 211.781 22.375C212.073 21.7917 212.365 21.2448 212.656 20.7344C212.984 20.224 213.276 19.7682 213.531 19.3672C213.823 18.9661 214.042 18.7292 214.188 18.6562C214.297 18.5833 214.625 18.5833 215.172 18.6562C215.719 18.7292 216.302 18.9115 216.922 19.2031C217.542 19.4583 218.143 19.8411 218.727 20.3516C219.31 20.8255 219.693 21.4089 219.875 22.1016C220.094 22.9036 220.167 23.9609 220.094 25.2734C220.057 26.5859 219.966 27.9349 219.82 29.3203C219.711 30.7057 219.62 32.0182 219.547 33.2578C219.474 34.4974 219.547 35.4453 219.766 36.1016C219.839 36.4661 219.948 36.7943 220.094 37.0859C220.167 37.3776 220.258 37.651 220.367 37.9062C220.513 38.125 220.659 38.2891 220.805 38.3984C219.93 38.7995 219.219 39.0911 218.672 39.2734C218.125 39.4557 217.706 39.5833 217.414 39.6562C217.049 39.7656 216.794 39.8021 216.648 39.7656C216.32 39.6562 216.029 39.3828 215.773 38.9453C215.555 38.5078 215.354 37.8151 215.172 36.8672C215.099 36.5755 215.062 36.1016 215.062 35.4453C215.099 34.7526 215.154 33.987 215.227 33.1484C215.299 32.2734 215.372 31.3802 215.445 30.4688C215.555 29.5208 215.628 28.6458 215.664 27.8438C215.737 27.0052 215.792 26.2943 215.828 25.7109C215.865 25.0911 215.865 24.6719 215.828 24.4531C215.646 23.7969 215.391 23.3411 215.062 23.0859C214.734 22.7943 214.479 22.7578 214.297 22.9766C213.823 23.5234 213.312 24.4167 212.766 25.6562C212.255 26.8594 211.763 28.1901 211.289 29.6484C210.815 31.0703 210.414 32.4922 210.086 33.9141C209.758 35.3359 209.557 36.5391 209.484 37.5234ZM241.75 4.27344C241.75 4.67448 241.714 5.45833 241.641 6.625C241.568 7.79167 241.477 9.19531 241.367 10.8359C241.258 12.4766 241.148 14.2812 241.039 16.25C240.93 18.2188 240.839 20.224 240.766 22.2656C240.693 24.3073 240.62 26.2214 240.547 28.0078C240.51 29.7578 240.492 31.3255 240.492 32.7109C240.529 34.0964 240.602 35.263 240.711 36.2109C240.82 37.1224 240.984 37.7422 241.203 38.0703L238.742 39C238.56 39.0729 238.341 39.1094 238.086 39.1094C237.831 39.1094 237.557 39.0365 237.266 38.8906C237.01 38.7448 236.792 38.4896 236.609 38.125C236.427 37.7604 236.336 37.25 236.336 36.5938C236.336 36.3385 236.336 36.0286 236.336 35.6641C236.372 35.263 236.391 34.8073 236.391 34.2969C235.953 35.026 235.479 35.737 234.969 36.4297C234.458 37.1224 233.893 37.724 233.273 38.2344C232.69 38.7448 232.052 39.1458 231.359 39.4375C230.667 39.7656 229.938 39.9297 229.172 39.9297C228.443 39.9297 227.732 39.7656 227.039 39.4375C226.346 39.1458 225.727 38.6901 225.18 38.0703C224.633 37.4505 224.177 36.6484 223.812 35.6641C223.484 34.6797 223.32 33.4948 223.32 32.1094C223.32 29.5938 223.612 27.4062 224.195 25.5469C224.779 23.651 225.508 22.0833 226.383 20.8438C227.294 19.5677 228.26 18.6198 229.281 18C230.339 17.3438 231.305 17.0156 232.18 17.0156C233.529 17.0156 234.568 17.3802 235.297 18.1094C236.026 18.8021 236.555 19.5312 236.883 20.2969C236.919 19.2396 236.938 18.2552 236.938 17.3438C236.974 16.3958 236.992 15.5938 236.992 14.9375C236.992 12.2396 236.938 9.83333 236.828 7.71875C236.719 5.60417 236.445 4 236.008 2.90625C236.518 2.61458 236.974 2.39583 237.375 2.25C237.812 2.10417 238.195 1.99479 238.523 1.92188C238.924 1.8125 239.271 1.75781 239.562 1.75781C240.365 1.75781 240.93 1.99479 241.258 2.46875C241.586 2.90625 241.75 3.50781 241.75 4.27344ZM236.555 29.6484C236.628 28.7005 236.664 27.7161 236.664 26.6953C236.701 25.638 236.737 24.5807 236.773 23.5234C236.518 23.9245 236.208 24.2708 235.844 24.5625C235.516 24.8542 235.151 24.9271 234.75 24.7812C234.896 23.6875 234.878 22.849 234.695 22.2656C234.549 21.6823 234.331 21.2448 234.039 20.9531C233.711 20.625 233.328 20.4427 232.891 20.4062C232.234 20.4062 231.578 20.7708 230.922 21.5C230.302 22.2292 229.737 23.1406 229.227 24.2344C228.753 25.2917 228.37 26.4401 228.078 27.6797C227.786 28.8828 227.641 29.9948 227.641 31.0156C227.641 33.0573 227.914 34.4792 228.461 35.2812C229.044 36.0833 229.664 36.4844 230.32 36.4844C230.867 36.4844 231.432 36.2656 232.016 35.8281C232.635 35.3906 233.219 34.8255 233.766 34.1328C234.349 33.4401 234.878 32.7109 235.352 31.9453C235.862 31.1432 236.263 30.3776 236.555 29.6484ZM252.25 39.6016C249.698 39.6016 247.729 38.7448 246.344 37.0312C244.958 35.3177 244.266 33.0755 244.266 30.3047C244.266 28.3724 244.539 26.5677 245.086 24.8906C245.669 23.1771 246.435 21.7005 247.383 20.4609C248.331 19.2214 249.424 18.2552 250.664 17.5625C251.94 16.8333 253.271 16.4688 254.656 16.4688C256.005 16.4688 257.154 16.9609 258.102 17.9453C259.049 18.8932 259.523 20.2604 259.523 22.0469C259.523 23.2135 259.268 24.3802 258.758 25.5469C258.247 26.6771 257.573 27.6979 256.734 28.6094C255.932 29.4844 255.039 30.1953 254.055 30.7422C253.07 31.2891 252.122 31.5625 251.211 31.5625C250.628 31.5625 250.135 31.4896 249.734 31.3438C249.333 31.1979 248.969 30.9792 248.641 30.6875C248.75 32.7656 249.206 34.224 250.008 35.0625C250.81 35.8646 251.849 36.2656 253.125 36.2656C254 36.2656 254.766 36.0833 255.422 35.7188C256.115 35.3542 256.698 34.9349 257.172 34.4609C257.646 33.987 258.029 33.513 258.32 33.0391C258.612 32.5286 258.812 32.1458 258.922 31.8906C259.031 31.6719 259.214 31.5625 259.469 31.5625C259.76 31.5625 259.906 31.7812 259.906 32.2188C259.906 32.6198 259.76 33.2396 259.469 34.0781C259.214 34.8802 258.776 35.7005 258.156 36.5391C257.536 37.3411 256.734 38.0521 255.75 38.6719C254.802 39.2917 253.635 39.6016 252.25 39.6016ZM254.766 18.8203C254.547 18.8203 254.128 19.0573 253.508 19.5312C252.924 19.9688 252.286 20.625 251.594 21.5C250.938 22.375 250.318 23.4323 249.734 24.6719C249.188 25.875 248.841 27.2422 248.695 28.7734C250.883 28.263 252.615 27.4609 253.891 26.3672C255.167 25.2734 255.805 23.6693 255.805 21.5547C255.805 20.4974 255.677 19.7865 255.422 19.4219C255.167 19.0208 254.948 18.8203 254.766 18.8203ZM277.898 22.2109C277.898 22.7214 277.753 23.25 277.461 23.7969C277.206 24.3073 276.878 24.7995 276.477 25.2734C276.076 25.7474 275.62 26.1667 275.109 26.5312C274.635 26.8594 274.18 27.0599 273.742 27.1328C274.034 26.0026 274.125 25.1276 274.016 24.5078C273.906 23.888 273.724 23.4323 273.469 23.1406C273.177 22.8125 272.812 22.6302 272.375 22.5938C271.719 22.5938 271.081 22.9766 270.461 23.7422C269.878 24.4714 269.367 25.3828 268.93 26.4766C268.492 27.5339 268.146 28.6823 267.891 29.9219C267.635 31.125 267.508 32.2188 267.508 33.2031C267.471 33.8958 267.49 34.5703 267.562 35.2266C267.599 35.7734 267.654 36.3385 267.727 36.9219C267.836 37.5052 267.982 37.9609 268.164 38.2891C267.945 38.4714 267.581 38.6901 267.07 38.9453C266.596 39.2005 266.086 39.3646 265.539 39.4375C265.029 39.5104 264.555 39.4193 264.117 39.1641C263.716 38.9089 263.497 38.362 263.461 37.5234C263.388 36.7214 263.333 35.8281 263.297 34.8438C263.297 33.8229 263.297 32.8203 263.297 31.8359C263.333 30.8151 263.37 29.8125 263.406 28.8281C263.443 27.8438 263.497 26.9323 263.57 26.0938C263.643 24.4896 263.68 23.25 263.68 22.375C263.68 21.5 263.661 20.6615 263.625 19.8594C263.625 19.7135 263.862 19.513 264.336 19.2578C264.846 18.9661 265.393 18.7109 265.977 18.4922C266.596 18.2734 267.161 18.1458 267.672 18.1094C268.182 18.0729 268.438 18.1823 268.438 18.4375C268.438 18.8385 268.383 19.6406 268.273 20.8438C268.201 22.0104 268.091 23.2318 267.945 24.5078C268.201 23.8151 268.529 23.0677 268.93 22.2656C269.367 21.4635 269.859 20.7161 270.406 20.0234C270.953 19.3307 271.573 18.7656 272.266 18.3281C272.958 17.8542 273.724 17.6172 274.562 17.6172C275.219 17.6172 275.747 17.8177 276.148 18.2188C276.586 18.6198 276.932 19.0755 277.188 19.5859C277.443 20.0964 277.625 20.6068 277.734 21.1172C277.844 21.6276 277.898 21.9922 277.898 22.2109Z" fill="black"/>
</svg>
